{"title":"North by Northwest(1959)MP-4[DaScubaDude]","uid":12351340,"size":1362100962,"categoryP":"video","categoryS":"movies","magnet":"?xt=urn:btih:77b6ddf6f8f4389b066cf20cda2975260feaaf16&amp;dn=North+by+Northwest%281959%29MP-4%5BDaScubaDude%5D&amp;tr=udp%3A%2F%2Ftracker.openbittorrent.com%3A80&amp;tr=udp%3A%2F%2Fopen.demonii.com%3A1337&amp;tr=udp%3A%2F%2Ftracker.coppersurfer.tk%3A6969&amp;tr=udp%3A%2F%2Fexodus.desync.com%3A6969","seeders":0,"leechers":0,"uploader":"dascuba","files":1,"time":1441428824,"description":"North by Northwest (1959)\nApproved  |  136 min  |  Adventure, Mystery, Thriller  |  26 September 1959 (Japan)\n8.4 Your rating:   -/10   Ratings: 8.4/10 from 200,845 users   \nReviews: 495 user | 196 critic\nA hapless New York advertising executive is mistaken for a government agent by a group of foreign spies, and is pursued across the country while he looks for a way to survive.\n\nDirector: Alfred Hitchcock\nWriter: Ernest Lehman\nStars: Cary Grant, Eva Marie Saint, James Mason\n\nGeneral\nComplete name                : C:NORTH BY NORTHWESTNORTH_BY_NORTHWEST_Title1.mp4\nFormat                                   : MPEG-4\nFormat profile                           : Base Media\nCodec ID                                 : isom\nFile size                                : 1.27 GiB\nDuration                                 : 2h 16mn\nOverall bit rate                         : 1 333 Kbps\nMovie name                               : NORTH_BY_NORTHWEST_Title1\nWriting application                      : Lavf54.6.100\n\nVideo\nID                                       : 1\nFormat                                   : AVC\nFormat/Info                              : Advanced Video Codec\nFormat profile                           : Baseline@L3\nFormat settings, CABAC                   : No\nFormat settings, ReFrames                : 6 frames\nCodec ID                                 : avc1\nCodec ID/Info                            : Advanced Video Coding\nDuration                                 : 2h 16mn\nBit rate                                 : 1 198 Kbps\nWidth                                    : 720 pixels\nHeight                                   : 404 pixels\nDisplay aspect ratio                     : 16:9\nFrame rate mode                          : Constant\nFrame rate                               : 29.970 fps\nColor space                              : YUV\nChroma subsampling                       : 4:2:0\nBit depth                                : 8 bits\nScan type                                : Progressive\nBits/(Pixel*Frame)                       : 0.137\nStream size                              : 1.14 GiB (90%)\n\nAudio\nID                                       : 2\nFormat                                   : AAC\nFormat/Info                              : Advanced Audio Codec\nFormat profile                           : LC\nCodec ID                                 : 40\nDuration                                 : 2h 16mn\nBit rate mode                            : Constant\nBit rate                                 : 128 Kbps\nChannel(s)                               : 2 channels\nChannel positions                        : Front: L R\nSampling rate                            : 44.1 KHz\nCompression mode                         : Lossy\nStream size                              : 125 MiB (10%)","torrent":{"xt":"urn:btih:77b6ddf6f8f4389b066cf20cda2975260feaaf16","amp;dn":"North+by+Northwest%281959%29MP-4%5BDaScubaDude%5D","amp;tr":["udp%3A%2F%2Ftracker.openbittorrent.com%3A80","udp%3A%2F%2Fopen.demonii.com%3A1337","udp%3A%2F%2Ftracker.coppersurfer.tk%3A6969","udp%3A%2F%2Fexodus.desync.com%3A6969"],"infoHash":"77b6ddf6f8f4389b066cf20cda2975260feaaf16","infoHashBuffer":{"type":"Buffer","data":[119,182,221,246,248,244,56,155,6,108,242,12,218,41,117,38,15,234,175,22]},"announce":[],"urlList":[]}}